<svg xmlns="http://www.w3.org/2000/svg" viewBox="0 0 388.68 85.55"><path d="M128.15 38.35l-17.54-18.37h-4.09v45.6h5.44V29.27l16.19 16.95 16.19-16.95v36.31h5.45v-45.6h-4.1l-17.54 18.37zm35.32-18.38h5.44v45.61h-5.44zm40.22 0h-3.93l-19.03 45.61h5.9l15.09-36.18 6.67 15.97h-10.4l-2.2 5.44h14.87l6.16 14.77h5.9L204.3 21.42l-.61-1.45zm67.38 1.66l-17.81 18.65-17.8-18.65-.31-.32h-2.19v42.94h2.78V25.94l16.78 17.58.74.77.74-.77 16.79-17.58v38.31h2.77V21.31h-2.19l-.3.32zm18.84-.33h2.78v42.94h-2.78zm21.88.01h-2.78V62.5v.73 1.02h23.45v-2.78h-20.67V21.31zm50.86.03c-11.83 0-21.45 9.62-21.45 21.45s9.62 21.45 21.45 21.45 21.45-9.62 21.45-21.45-9.62-21.45-21.45-21.45m0 40.12c-10.3 0-18.68-8.38-18.68-18.67s8.38-18.67 18.68-18.67 18.67 8.37 18.67 18.67-8.37 18.67-18.67 18.67M65.03 85.55h-3.91a1.82 1.82 0 0 1-1.82-1.82c0-1.01.81-1.82 1.82-1.82h3.83c1.44 0 2.5-.13 3.44-.42 4.15-1.26 7.01-4.51 8.27-9.41.9-3.51.03-7.07-2.66-10.86L61.28 43.77l-7.23-10.24c-.04-.06-.11-.1-.18-.1-.06 0-.11 0-.15.04l-8.28 10.22-8.29-10.22s-.09-.04-.15-.04c-.07 0-.13.04-.17.1l-7.22 10.22-12.76 17.49c-2.67 3.78-3.54 7.33-2.64 10.84 1.25 4.88 4.11 8.13 8.25 9.4.94.29 2.01.42 3.38.42h4.31a1.82 1.82 0 0 1 1.82 1.82c0 1.01-.81 1.82-1.82 1.82h-4.24c-1.8 0-3.21-.18-4.51-.58-5.35-1.63-9.15-5.88-10.71-11.97-1.18-4.61-.13-9.14 3.21-13.86l12.76-17.49 7.2-10.2c.66-.93 1.69-1.53 2.83-1.63 1.15-.1 2.26.31 3.07 1.12l.13.14 5.55 6.85 5.68-6.99c.81-.81 1.94-1.21 3.07-1.12 1.14.1 2.18.69 2.84 1.62l7.22 10.22 12.72 17.44c3.36 4.74 4.41 9.27 3.23 13.88-1.57 6.1-5.38 10.36-10.73 11.98-1.29.39-2.69.57-4.42.57m-.91-10.87h-3.42a1.82 1.82 0 0 1-1.82-1.82c0-1.01.81-1.82 1.82-1.82h3.61c.93 0 1.36-.64 1.5-.92s.41-1-.14-1.76l-12.4-17.02-7.86 9.7-7.86-9.7-12.4 17.02c-.55.76-.28 1.48-.14 1.76s.57.92 1.51.92h3.61a1.82 1.82 0 0 1 1.82 1.82c0 1.01-.81 1.82-1.82 1.82h-3.41c-1.86 0-3.66-.87-4.67-2.43a5.3 5.3 0 0 1 .17-6.03l14.04-19.26c.58-.8 1.76-.83 2.37-.06l6.79 8.37 6.79-8.37a1.51 1.51 0 0 1 2.38.06l14.04 19.26c1.29 1.78 1.38 4.14.17 6.03-1 1.56-2.81 2.43-4.66 2.43m-51.1-29.21a10.58 10.58 0 0 1-3-.44c-2.86-.82-5.47-2.73-7.36-5.37C.82 36.99-.14 33.9.02 30.93c.16-3.13 1.52-5.75 3.81-7.39 2.3-1.64 5.22-2.07 8.23-1.2 2.86.82 5.47 2.73 7.36 5.37s2.84 5.74 2.69 8.7c-.16 3.13-1.52 5.75-3.81 7.39-1.52 1.08-3.31 1.64-5.23 1.64M9.08 25.53c-1.17 0-2.24.32-3.13.96-1.38.98-2.19 2.62-2.3 4.62-.11 2.15.61 4.43 2.02 6.41s3.33 3.4 5.4 3.99c1.92.55 3.74.31 5.12-.67s2.19-2.62 2.3-4.62c.11-2.15-.61-4.43-2.02-6.41s-3.33-3.4-5.4-3.99c-.68-.19-1.34-.29-1.98-.29"/><path d="M31.61 24.48c-4.56 0-9.11-3.53-10.96-8.92-2.22-6.5.33-13.27 5.69-15.1 5.35-1.83 11.52 1.96 13.74 8.46 1.05 3.07 1.08 6.31.08 9.11-1.05 2.95-3.1 5.07-5.77 5.99a8.62 8.62 0 0 1-2.78.46M29.17 3.63c-.56 0-1.11.09-1.65.27-3.46 1.18-5 5.89-3.43 10.49s5.66 7.38 9.13 6.2c1.6-.55 2.85-1.89 3.52-3.77.72-2.03.69-4.42-.1-6.72-1.33-3.88-4.45-6.47-7.47-6.47m48.62 41.8c-1.87 0-3.68-.52-5.22-1.62-4.61-3.29-5.11-10.51-1.13-16.09 3.99-5.59 10.98-7.46 15.59-4.17s5.11 10.51 1.13 16.09c-2.65 3.72-6.64 5.79-10.37 5.79M74.4 29.82c-2.82 3.96-2.7 8.9.28 11.03 2.97 2.12 7.7.63 10.52-3.32 2.82-3.96 2.7-8.9-.28-11.03-2.97-2.12-7.7-.63-10.52 3.32"/><path d="M59.3 24.49a8.78 8.78 0 0 1-2.82-.47c-5.36-1.83-7.91-8.6-5.69-15.1S59.18-1.37 64.53.46c2.67.91 4.72 3.04 5.77 5.99 1 2.8.97 6.04-.08 9.11s-3.01 5.65-5.51 7.25c-1.73 1.11-3.58 1.67-5.4 1.67m-5.07-14.39c-1.57 4.6-.03 9.3 3.43 10.49 1.6.55 3.41.25 5.09-.82 1.81-1.16 3.25-3.07 4.03-5.37.79-2.3.82-4.69.1-6.72-.67-1.88-1.92-3.22-3.52-3.77-3.46-1.18-7.55 1.6-9.13 6.2m334.44 10.1c0 2.23-1.75 3.98-4.03 3.98s-4.06-1.75-4.06-3.98 1.8-3.94 4.06-3.94 4.03 1.75 4.03 3.94zm-7.08 0c0 1.75 1.29 3.14 3.07 3.14s3-1.39 3-3.12-1.27-3.17-3.02-3.17-3.05 1.42-3.05 3.14zm2.42 2.06h-.91v-3.94c.36-.07.86-.12 1.51-.12.74 0 1.08.12 1.37.29.21.17.38.48.38.86 0 .43-.34.77-.82.91v.05c.38.14.6.43.72.96.12.6.19.84.29.98h-.98c-.12-.14-.19-.5-.31-.96-.07-.43-.31-.62-.82-.62h-.43v1.58zm.02-2.23h.43c.5 0 .91-.17.91-.58 0-.36-.26-.6-.84-.6-.24 0-.41.02-.5.05v1.13z"/></svg>